<mxfile host="Electron" agent="Mozilla/5.0 (Windows NT 10.0; Win64; x64) AppleWebKit/537.36 (KHTML, like Gecko) draw.io/26.2.15 Chrome/134.0.6998.205 Electron/35.2.1 Safari/537.36" version="26.2.15">
  <diagram id="C5RBs43oDa-KdzZeNtuy" name="Page-1">
    <mxGraphModel dx="872" dy="537" grid="1" gridSize="10" guides="1" tooltips="1" connect="1" arrows="1" fold="1" page="1" pageScale="1" pageWidth="827" pageHeight="1169" math="0" shadow="0">
      <root>
        <mxCell id="WIyWlLk6GJQsqaUBKTNV-0" />
        <mxCell id="WIyWlLk6GJQsqaUBKTNV-1" parent="WIyWlLk6GJQsqaUBKTNV-0" />
        <mxCell id="jXU1pM_BRzykf0wPNc74-1" value="Empresa" style="swimlane;fontStyle=1;align=center;verticalAlign=top;childLayout=stackLayout;horizontal=1;startSize=26;horizontalStack=0;resizeParent=1;resizeParentMax=0;resizeLast=0;collapsible=1;marginBottom=0;whiteSpace=wrap;html=1;" parent="WIyWlLk6GJQsqaUBKTNV-1" vertex="1">
          <mxGeometry x="30" y="90" width="190" height="270" as="geometry" />
        </mxCell>
        <mxCell id="jXU1pM_BRzykf0wPNc74-2" value="+nombre: String&lt;div&gt;+CUIT: String&lt;/div&gt;" style="text;strokeColor=none;fillColor=none;align=left;verticalAlign=top;spacingLeft=4;spacingRight=4;overflow=hidden;rotatable=0;points=[[0,0.5],[1,0.5]];portConstraint=eastwest;whiteSpace=wrap;html=1;" parent="jXU1pM_BRzykf0wPNc74-1" vertex="1">
          <mxGeometry y="26" width="190" height="44" as="geometry" />
        </mxCell>
        <mxCell id="jXU1pM_BRzykf0wPNc74-3" value="" style="line;strokeWidth=1;fillColor=none;align=left;verticalAlign=middle;spacingTop=-1;spacingLeft=3;spacingRight=3;rotatable=0;labelPosition=right;points=[];portConstraint=eastwest;strokeColor=inherit;" parent="jXU1pM_BRzykf0wPNc74-1" vertex="1">
          <mxGeometry y="70" width="190" height="10" as="geometry" />
        </mxCell>
        <mxCell id="jXU1pM_BRzykf0wPNc74-4" value="&lt;div&gt;+new (String nombre, String CUIT)&lt;/div&gt;&lt;div&gt;+agregarEmpleado (Empleado empleado)&lt;/div&gt;&lt;div&gt;+liquidarSueldoDe(Empleado empleado)&lt;/div&gt;&lt;div&gt;+generarReciboDe(Empleado empleado)&lt;/div&gt;&lt;div&gt;&lt;span style=&quot;background-color: transparent; color: light-dark(rgb(0, 0, 0), rgb(255, 255, 255));&quot;&gt;+calcularSueldosBrutos():Double&lt;/span&gt;&lt;/div&gt;&lt;div&gt;+calcularRetenciones():Double&lt;/div&gt;&lt;div&gt;+calcularSueldosNetos():Double&lt;/div&gt;+liquidarSueldos():void&lt;div&gt;&lt;br&gt;&lt;/div&gt;" style="text;strokeColor=none;fillColor=none;align=left;verticalAlign=top;spacingLeft=4;spacingRight=4;overflow=hidden;rotatable=0;points=[[0,0.5],[1,0.5]];portConstraint=eastwest;whiteSpace=wrap;html=1;" parent="jXU1pM_BRzykf0wPNc74-1" vertex="1">
          <mxGeometry y="80" width="190" height="190" as="geometry" />
        </mxCell>
        <mxCell id="jXU1pM_BRzykf0wPNc74-13" value="&lt;i&gt;Empleado&lt;/i&gt;&lt;div&gt;&lt;br&gt;&lt;/div&gt;" style="swimlane;fontStyle=1;align=center;verticalAlign=top;childLayout=stackLayout;horizontal=1;startSize=26;horizontalStack=0;resizeParent=1;resizeParentMax=0;resizeLast=0;collapsible=1;marginBottom=0;whiteSpace=wrap;html=1;" parent="WIyWlLk6GJQsqaUBKTNV-1" vertex="1">
          <mxGeometry x="310" y="60" width="220" height="330" as="geometry" />
        </mxCell>
        <mxCell id="jXU1pM_BRzykf0wPNc74-14" value="+nombre: String&lt;div&gt;+direccion: String&lt;/div&gt;&lt;div&gt;+estado civil: String&lt;/div&gt;&lt;div&gt;+fecha de nacimiento: LocalDate&lt;/div&gt;&lt;div&gt;+Sueldo basico: Int&lt;/div&gt;" style="text;strokeColor=none;fillColor=none;align=left;verticalAlign=top;spacingLeft=4;spacingRight=4;overflow=hidden;rotatable=0;points=[[0,0.5],[1,0.5]];portConstraint=eastwest;whiteSpace=wrap;html=1;" parent="jXU1pM_BRzykf0wPNc74-13" vertex="1">
          <mxGeometry y="26" width="220" height="84" as="geometry" />
        </mxCell>
        <mxCell id="jXU1pM_BRzykf0wPNc74-15" value="" style="line;strokeWidth=1;fillColor=none;align=left;verticalAlign=middle;spacingTop=-1;spacingLeft=3;spacingRight=3;rotatable=0;labelPosition=right;points=[];portConstraint=eastwest;strokeColor=inherit;" parent="jXU1pM_BRzykf0wPNc74-13" vertex="1">
          <mxGeometry y="110" width="220" height="8" as="geometry" />
        </mxCell>
        <mxCell id="jXU1pM_BRzykf0wPNc74-16" value="&lt;div&gt;&lt;span style=&quot;background-color: transparent; color: light-dark(rgb(0, 0, 0), rgb(255, 255, 255));&quot;&gt;+ new (String nombre, String, direccion, String estadoCivil, LocalDate fechaDeNacimiento, int sueldoBasico)&lt;/span&gt;&lt;/div&gt;&lt;div&gt;&lt;span style=&quot;background-color: transparent; color: light-dark(rgb(0, 0, 0), rgb(255, 255, 255));&quot;&gt;+decirEdad():date&lt;/span&gt;&lt;/div&gt;&lt;div&gt;+&lt;i&gt;calcularSueldoBruto()&lt;/i&gt;: Int&lt;/div&gt;&lt;div&gt;+calcularRetenciones(): double&lt;/div&gt;&lt;div&gt;+calcularSueldoNeto():double&lt;/div&gt;&lt;div&gt;+getNombre() : String&lt;/div&gt;&lt;div&gt;+getDireccion(): String&lt;/div&gt;&lt;div&gt;+getEstadoCivil(): String&lt;/div&gt;&lt;div&gt;+getFechaDeNacimiento(): LocalDate&lt;/div&gt;&lt;div&gt;+getSueldoBasico(): int&lt;/div&gt;&lt;div&gt;#costoDeObraSocial(): double&lt;/div&gt;&lt;div&gt;#costoDeJubilacion(): double&lt;/div&gt;" style="text;strokeColor=none;fillColor=none;align=left;verticalAlign=top;spacingLeft=4;spacingRight=4;overflow=hidden;rotatable=0;points=[[0,0.5],[1,0.5]];portConstraint=eastwest;whiteSpace=wrap;html=1;" parent="jXU1pM_BRzykf0wPNc74-13" vertex="1">
          <mxGeometry y="118" width="220" height="212" as="geometry" />
        </mxCell>
        <mxCell id="jXU1pM_BRzykf0wPNc74-25" value="trabajadores&lt;div&gt;&lt;br&gt;&lt;/div&gt;" style="endArrow=block;endFill=1;html=1;edgeStyle=orthogonalEdgeStyle;align=left;verticalAlign=top;rounded=0;" parent="WIyWlLk6GJQsqaUBKTNV-1" source="jXU1pM_BRzykf0wPNc74-1" target="jXU1pM_BRzykf0wPNc74-13" edge="1">
          <mxGeometry x="-1" relative="1" as="geometry">
            <mxPoint x="290" y="180" as="sourcePoint" />
            <mxPoint x="450" y="180" as="targetPoint" />
          </mxGeometry>
        </mxCell>
        <mxCell id="jXU1pM_BRzykf0wPNc74-26" value="1" style="edgeLabel;resizable=0;html=1;align=left;verticalAlign=bottom;" parent="jXU1pM_BRzykf0wPNc74-25" connectable="0" vertex="1">
          <mxGeometry x="-1" relative="1" as="geometry" />
        </mxCell>
        <mxCell id="jXU1pM_BRzykf0wPNc74-32" value="EmpleadoTemporal" style="swimlane;fontStyle=1;align=center;verticalAlign=top;childLayout=stackLayout;horizontal=1;startSize=26;horizontalStack=0;resizeParent=1;resizeParentMax=0;resizeLast=0;collapsible=1;marginBottom=0;whiteSpace=wrap;html=1;" parent="WIyWlLk6GJQsqaUBKTNV-1" vertex="1">
          <mxGeometry x="620" y="120" width="180" height="210" as="geometry" />
        </mxCell>
        <mxCell id="jXU1pM_BRzykf0wPNc74-33" value="+fechaDeCese: LocalDate&lt;div&gt;+horasExtra: Int&lt;/div&gt;" style="text;strokeColor=none;fillColor=none;align=left;verticalAlign=top;spacingLeft=4;spacingRight=4;overflow=hidden;rotatable=0;points=[[0,0.5],[1,0.5]];portConstraint=eastwest;whiteSpace=wrap;html=1;" parent="jXU1pM_BRzykf0wPNc74-32" vertex="1">
          <mxGeometry y="26" width="180" height="34" as="geometry" />
        </mxCell>
        <mxCell id="jXU1pM_BRzykf0wPNc74-34" value="" style="line;strokeWidth=1;fillColor=none;align=left;verticalAlign=middle;spacingTop=-1;spacingLeft=3;spacingRight=3;rotatable=0;labelPosition=right;points=[];portConstraint=eastwest;strokeColor=inherit;" parent="jXU1pM_BRzykf0wPNc74-32" vertex="1">
          <mxGeometry y="60" width="180" height="8" as="geometry" />
        </mxCell>
        <mxCell id="jXU1pM_BRzykf0wPNc74-35" value="+new (String nombre, String, direccion, String estadoCivil, LocalDate fechaDeNacimiento, int sueldoBasico)&lt;div&gt;+ calcularSueldoBruto(): int&lt;/div&gt;&lt;div&gt;#costoDeObraSocial(): double&lt;/div&gt;&lt;div&gt;-extraPorAntiguedad(): int&lt;/div&gt;&lt;div&gt;#costoDeJubilacion(): double&lt;/div&gt;" style="text;strokeColor=none;fillColor=none;align=left;verticalAlign=top;spacingLeft=4;spacingRight=4;overflow=hidden;rotatable=0;points=[[0,0.5],[1,0.5]];portConstraint=eastwest;whiteSpace=wrap;html=1;" parent="jXU1pM_BRzykf0wPNc74-32" vertex="1">
          <mxGeometry y="68" width="180" height="142" as="geometry" />
        </mxCell>
        <mxCell id="jXU1pM_BRzykf0wPNc74-36" value="Extends" style="endArrow=block;endSize=16;endFill=0;html=1;rounded=0;" parent="WIyWlLk6GJQsqaUBKTNV-1" source="jXU1pM_BRzykf0wPNc74-32" target="jXU1pM_BRzykf0wPNc74-13" edge="1">
          <mxGeometry x="0.013" width="160" relative="1" as="geometry">
            <mxPoint x="560" y="420" as="sourcePoint" />
            <mxPoint x="720" y="420" as="targetPoint" />
            <Array as="points" />
            <mxPoint as="offset" />
          </mxGeometry>
        </mxCell>
        <mxCell id="jXU1pM_BRzykf0wPNc74-37" value="Extends" style="endArrow=block;endSize=16;endFill=0;html=1;rounded=0;" parent="WIyWlLk6GJQsqaUBKTNV-1" source="jXU1pM_BRzykf0wPNc74-44" target="jXU1pM_BRzykf0wPNc74-13" edge="1">
          <mxGeometry width="160" relative="1" as="geometry">
            <mxPoint x="417" y="440" as="sourcePoint" />
            <mxPoint x="580" y="470" as="targetPoint" />
          </mxGeometry>
        </mxCell>
        <mxCell id="jXU1pM_BRzykf0wPNc74-44" value="EmpleadoPermanente" style="swimlane;fontStyle=1;align=center;verticalAlign=top;childLayout=stackLayout;horizontal=1;startSize=26;horizontalStack=0;resizeParent=1;resizeParentMax=0;resizeLast=0;collapsible=1;marginBottom=0;whiteSpace=wrap;html=1;" parent="WIyWlLk6GJQsqaUBKTNV-1" vertex="1">
          <mxGeometry x="530" y="450" width="170" height="150" as="geometry" />
        </mxCell>
        <mxCell id="jXU1pM_BRzykf0wPNc74-45" value="+cantidadDeHijos: Int&lt;div&gt;+antiguedad: Int&lt;/div&gt;" style="text;strokeColor=none;fillColor=none;align=left;verticalAlign=top;spacingLeft=4;spacingRight=4;overflow=hidden;rotatable=0;points=[[0,0.5],[1,0.5]];portConstraint=eastwest;whiteSpace=wrap;html=1;" parent="jXU1pM_BRzykf0wPNc74-44" vertex="1">
          <mxGeometry y="26" width="170" height="34" as="geometry" />
        </mxCell>
        <mxCell id="jXU1pM_BRzykf0wPNc74-46" value="" style="line;strokeWidth=1;fillColor=none;align=left;verticalAlign=middle;spacingTop=-1;spacingLeft=3;spacingRight=3;rotatable=0;labelPosition=right;points=[];portConstraint=eastwest;strokeColor=inherit;" parent="jXU1pM_BRzykf0wPNc74-44" vertex="1">
          <mxGeometry y="60" width="170" height="8" as="geometry" />
        </mxCell>
        <mxCell id="jXU1pM_BRzykf0wPNc74-47" value="+calcularSueldoBruto():int&lt;div&gt;-salarioFamiliar(): int&lt;/div&gt;&lt;div&gt;#costoDeObraSocial(): double&lt;/div&gt;&lt;div&gt;#costoDeJubilacion():double&lt;/div&gt;" style="text;strokeColor=none;fillColor=none;align=left;verticalAlign=top;spacingLeft=4;spacingRight=4;overflow=hidden;rotatable=0;points=[[0,0.5],[1,0.5]];portConstraint=eastwest;whiteSpace=wrap;html=1;" parent="jXU1pM_BRzykf0wPNc74-44" vertex="1">
          <mxGeometry y="68" width="170" height="82" as="geometry" />
        </mxCell>
        <mxCell id="jXU1pM_BRzykf0wPNc74-48" value="ReciboDeHaberes" style="swimlane;fontStyle=1;align=center;verticalAlign=top;childLayout=stackLayout;horizontal=1;startSize=26;horizontalStack=0;resizeParent=1;resizeParentMax=0;resizeLast=0;collapsible=1;marginBottom=0;whiteSpace=wrap;html=1;" parent="WIyWlLk6GJQsqaUBKTNV-1" vertex="1">
          <mxGeometry x="32" y="460" width="180" height="290" as="geometry" />
        </mxCell>
        <mxCell id="jXU1pM_BRzykf0wPNc74-49" value="&lt;div&gt;+nombre: Int&lt;/div&gt;&lt;div&gt;+direccion: String&lt;/div&gt;&lt;div&gt;+fechaDeEmision:Date&lt;/div&gt;&lt;div&gt;+sueldoBruto: Int&lt;/div&gt;&lt;div&gt;+sueldoNeto: Int&lt;/div&gt;&lt;div&gt;+conceptos: String&lt;/div&gt;" style="text;strokeColor=none;fillColor=none;align=left;verticalAlign=top;spacingLeft=4;spacingRight=4;overflow=hidden;rotatable=0;points=[[0,0.5],[1,0.5]];portConstraint=eastwest;whiteSpace=wrap;html=1;" parent="jXU1pM_BRzykf0wPNc74-48" vertex="1">
          <mxGeometry y="26" width="180" height="144" as="geometry" />
        </mxCell>
        <mxCell id="jXU1pM_BRzykf0wPNc74-50" value="" style="line;strokeWidth=1;fillColor=none;align=left;verticalAlign=middle;spacingTop=-1;spacingLeft=3;spacingRight=3;rotatable=0;labelPosition=right;points=[];portConstraint=eastwest;strokeColor=inherit;" parent="jXU1pM_BRzykf0wPNc74-48" vertex="1">
          <mxGeometry y="170" width="180" height="20" as="geometry" />
        </mxCell>
        <mxCell id="jXU1pM_BRzykf0wPNc74-51" value="+new (Empleado empleado)&lt;div&gt;+desgloceDeConceptos(): String&lt;br&gt;&lt;div&gt;&lt;br&gt;&lt;/div&gt;&lt;/div&gt;" style="text;strokeColor=none;fillColor=none;align=left;verticalAlign=top;spacingLeft=4;spacingRight=4;overflow=hidden;rotatable=0;points=[[0,0.5],[1,0.5]];portConstraint=eastwest;whiteSpace=wrap;html=1;" parent="jXU1pM_BRzykf0wPNc74-48" vertex="1">
          <mxGeometry y="190" width="180" height="100" as="geometry" />
        </mxCell>
        <mxCell id="jXU1pM_BRzykf0wPNc74-52" value="recibos" style="endArrow=block;endFill=1;html=1;edgeStyle=orthogonalEdgeStyle;align=left;verticalAlign=top;rounded=0;exitX=0.478;exitY=1;exitDx=0;exitDy=0;exitPerimeter=0;entryX=0.438;entryY=-0.007;entryDx=0;entryDy=0;entryPerimeter=0;" parent="WIyWlLk6GJQsqaUBKTNV-1" source="jXU1pM_BRzykf0wPNc74-4" edge="1" target="jXU1pM_BRzykf0wPNc74-48">
          <mxGeometry x="-1" relative="1" as="geometry">
            <mxPoint x="274" y="250" as="sourcePoint" />
            <mxPoint x="274" y="420" as="targetPoint" />
            <Array as="points">
              <mxPoint x="116" y="360" />
              <mxPoint x="109" y="360" />
            </Array>
          </mxGeometry>
        </mxCell>
        <mxCell id="jXU1pM_BRzykf0wPNc74-53" value="1" style="edgeLabel;resizable=0;html=1;align=left;verticalAlign=bottom;" parent="jXU1pM_BRzykf0wPNc74-52" connectable="0" vertex="1">
          <mxGeometry x="-1" relative="1" as="geometry">
            <mxPoint x="-21" y="20" as="offset" />
          </mxGeometry>
        </mxCell>
        <mxCell id="LJK29v0o69a5RbpFoerl-1" value="EmpleadoContratado&lt;div&gt;&lt;br&gt;&lt;/div&gt;" style="swimlane;fontStyle=1;align=center;verticalAlign=top;childLayout=stackLayout;horizontal=1;startSize=26;horizontalStack=0;resizeParent=1;resizeParentMax=0;resizeLast=0;collapsible=1;marginBottom=0;whiteSpace=wrap;html=1;" vertex="1" parent="WIyWlLk6GJQsqaUBKTNV-1">
          <mxGeometry x="280" y="520" width="160" height="190" as="geometry" />
        </mxCell>
        <mxCell id="LJK29v0o69a5RbpFoerl-2" value="+numeroDeContraro: int&lt;div&gt;+metodoDePago: String&lt;/div&gt;" style="text;strokeColor=none;fillColor=none;align=left;verticalAlign=top;spacingLeft=4;spacingRight=4;overflow=hidden;rotatable=0;points=[[0,0.5],[1,0.5]];portConstraint=eastwest;whiteSpace=wrap;html=1;" vertex="1" parent="LJK29v0o69a5RbpFoerl-1">
          <mxGeometry y="26" width="160" height="44" as="geometry" />
        </mxCell>
        <mxCell id="LJK29v0o69a5RbpFoerl-3" value="" style="line;strokeWidth=1;fillColor=none;align=left;verticalAlign=middle;spacingTop=-1;spacingLeft=3;spacingRight=3;rotatable=0;labelPosition=right;points=[];portConstraint=eastwest;strokeColor=inherit;" vertex="1" parent="LJK29v0o69a5RbpFoerl-1">
          <mxGeometry y="70" width="160" height="8" as="geometry" />
        </mxCell>
        <mxCell id="LJK29v0o69a5RbpFoerl-4" value="+calcularSueldoBruto(): int&lt;div&gt;+calcularRetenciones(): double&lt;/div&gt;&lt;div&gt;#costoDeObraSocial(): double&lt;/div&gt;&lt;div&gt;#costoDeJubilacion(): double&lt;/div&gt;" style="text;strokeColor=none;fillColor=none;align=left;verticalAlign=top;spacingLeft=4;spacingRight=4;overflow=hidden;rotatable=0;points=[[0,0.5],[1,0.5]];portConstraint=eastwest;whiteSpace=wrap;html=1;" vertex="1" parent="LJK29v0o69a5RbpFoerl-1">
          <mxGeometry y="78" width="160" height="112" as="geometry" />
        </mxCell>
        <mxCell id="LJK29v0o69a5RbpFoerl-5" value="Extends" style="endArrow=block;endSize=16;endFill=0;html=1;rounded=0;exitX=0.356;exitY=-0.023;exitDx=0;exitDy=0;exitPerimeter=0;" edge="1" parent="WIyWlLk6GJQsqaUBKTNV-1" source="LJK29v0o69a5RbpFoerl-1" target="jXU1pM_BRzykf0wPNc74-13">
          <mxGeometry width="160" relative="1" as="geometry">
            <mxPoint x="430" y="520" as="sourcePoint" />
            <mxPoint x="590" y="520" as="targetPoint" />
          </mxGeometry>
        </mxCell>
      </root>
    </mxGraphModel>
  </diagram>
</mxfile>
